<svg width="24006" height="665" viewBox="0 0 24006 665" fill="none" xmlns="http://www.w3.org/2000/svg">
<g filter="url(#filter0_b_10_1094)">
<path d="M24004.9 664.998L24005.2 662.216L13419.7 5.49947L13419.3 8.2813L24004.9 664.998Z" fill="url(#paint0_linear_10_1094)"/>
<path d="M23338 663.769L23338.4 660.923L13339.8 5.37051L13339.5 8.15243L23338 663.769Z" fill="url(#paint1_linear_10_1094)"/>
<path d="M22671.2 662.475L22671.5 659.693L13260 5.17613L13259.6 8.02264L22671.2 662.475Z" fill="url(#paint2_linear_10_1094)"/>
<path d="M22004.4 661.182L22004.8 658.4L13180.2 5.04692L13179.8 7.82884L22004.4 661.182Z" fill="url(#paint3_linear_10_1094)"/>
<path d="M21337.6 659.953L21338 657.106L13100.2 4.91797L13099.8 7.6998L21337.6 659.953Z" fill="url(#paint4_linear_10_1094)"/>
<path d="M20670.8 658.659L20671.2 655.877L13020.4 4.72358L13020 7.57017L20670.8 658.659Z" fill="url(#paint5_linear_10_1094)"/>
<path d="M20003.9 657.429L20004.4 654.583L12940.6 4.59389L12940.1 7.37572L20003.9 657.429Z" fill="url(#paint6_linear_10_1094)"/>
<path d="M19337.2 656.136L19337.7 653.355L12860.8 4.46542L12860.3 7.24733L19337.2 656.136Z" fill="url(#paint7_linear_10_1094)"/>
<path d="M18670.3 654.842L18670.8 652.06L12780.9 4.27054L12780.3 7.11713L18670.3 654.842Z" fill="url(#paint8_linear_10_1094)"/>
<path d="M18003.5 653.613L18004.1 650.767L12701 4.14158L12700.4 6.9235L18003.5 653.613Z" fill="url(#paint9_linear_10_1094)"/>
<path d="M17336.6 652.319L17337.3 649.537L12621.2 4.01189L12620.6 6.7938L17336.6 652.319Z" fill="url(#paint10_linear_10_1094)"/>
<path d="M16669.8 651.025L16670.6 648.243L12541.5 3.8175L12540.6 6.59942L16669.8 651.025Z" fill="url(#paint11_linear_10_1094)"/>
<path d="M16002.9 649.731L16003.8 647.013L12461.6 3.68781L12460.7 6.46973L16002.9 649.731Z" fill="url(#paint12_linear_10_1094)"/>
<path d="M15336 648.502L15337.2 645.72L12381.8 3.55886L12380.8 6.27601L15336 648.502Z" fill="url(#paint13_linear_10_1094)"/>
<path d="M14669.1 647.144L14670.4 644.491L12302.1 3.42965L12300.8 6.08213L14669.1 647.144Z" fill="url(#paint14_linear_10_1094)"/>
<path d="M14002.1 645.849L14003.8 643.262L12222.3 3.36466L12220.7 5.88778L14002.1 645.849Z" fill="url(#paint15_linear_10_1094)"/>
<path d="M13335.1 644.426L13337.3 642.161L12142.8 3.29942L12140.6 5.62842L13335.1 644.426Z" fill="url(#paint16_linear_10_1094)"/>
<path d="M12667.8 642.874L12670.9 641.192L12063.4 3.49444L12060.3 5.11181L12667.8 642.874Z" fill="url(#paint17_linear_10_1094)"/>
<path d="M12000.7 640.804L12004.5 640.739L11983.9 4.1416L11980.1 4.20636L12000.7 640.804Z" fill="url(#paint18_linear_10_1094)"/>
<path d="M11337.3 640.286L11903.7 4.78772L11900.5 3.23511L11334.2 638.733L11337.3 640.286Z" fill="url(#paint19_linear_10_1094)"/>
<path d="M10670.1 639.38L11823.3 4.98234L11821.1 2.71802L10667.9 637.116L10670.1 639.38Z" fill="url(#paint20_linear_10_1094)"/>
<path d="M10003 638.216L11743.2 4.9821L11741.6 2.45898L10001.3 635.693L10003 638.216Z" fill="url(#paint21_linear_10_1094)"/>
<path d="M9336.06 636.987L11663.2 4.91792L11661.9 2.20068L9334.76 634.335L9336.06 636.987Z" fill="url(#paint22_linear_10_1094)"/>
<path d="M8669.11 635.758L11583.1 4.78869L11582.1 2.07153L8668 633.041L8669.11 635.758Z" fill="url(#paint23_linear_10_1094)"/>
<path d="M8002.26 634.529L11503.2 4.65911L11502.3 1.8772L8001.35 631.747L8002.26 634.529Z" fill="url(#paint24_linear_10_1094)"/>
<path d="M7335.3 633.235L11423.3 4.46471L11422.5 1.74756L7334.6 630.517L7335.3 633.235Z" fill="url(#paint25_linear_10_1094)"/>
<path d="M6668.54 632.006L11343.4 4.33587L11342.7 1.55396L6667.84 629.224L6668.54 632.006Z" fill="url(#paint26_linear_10_1094)"/>
<path d="M6001.69 630.711L11263.4 4.2055L11262.8 1.42358L6001.09 627.929L6001.69 630.711Z" fill="url(#paint27_linear_10_1094)"/>
<path d="M5334.83 629.483L11183.6 4.07706L11183 1.23047L5334.33 626.701L5334.83 629.483Z" fill="url(#paint28_linear_10_1094)"/>
<path d="M4667.98 628.189L11103.7 3.8825L11103.2 1.10059L4667.48 625.407L4667.98 628.189Z" fill="url(#paint29_linear_10_1094)"/>
<path d="M4001.23 626.959L11023.8 3.75284L11023.4 0.90625L4000.72 624.113L4001.23 626.959Z" fill="url(#paint30_linear_10_1094)"/>
<path d="M3334.37 625.666L10943.9 3.62369L10943.5 0.7771L3333.97 622.884L3334.37 625.666Z" fill="url(#paint31_linear_10_1094)"/>
<path d="M2667.52 624.372L10864 3.43003L10863.7 0.648193L2667.11 621.59L2667.52 624.372Z" fill="url(#paint32_linear_10_1094)"/>
<path d="M2000.76 623.143L10784.2 3.30045L10783.8 0.453857L2000.36 620.296L2000.76 623.143Z" fill="url(#paint33_linear_10_1094)"/>
<path d="M1333.91 621.85L10704.3 3.17171L10704 0.325195L1333.61 619.068L1333.91 621.85Z" fill="url(#paint34_linear_10_1094)"/>
<path d="M667.056 620.62L10624.4 2.97674L10624.1 0.194824L666.754 617.773L667.056 620.62Z" fill="url(#paint35_linear_10_1094)"/>
<path d="M0.298882 619.326L10544.5 2.84773L10544.2 0.00122073L-0.000923392 616.48L0.298882 619.326Z" fill="url(#paint36_linear_10_1094)"/>
<path d="M10544.4 0.434611L13419.5 5.15454L13419.5 8.00113L10544.4 3.2812L10544.4 0.434611Z" fill="url(#paint37_linear_10_1094)"/>
<path d="M10508.4 2.60391L13455.6 7.23999L13455.6 10.0866L10508.4 5.4505L10508.4 2.60391Z" fill="url(#paint38_linear_10_1094)"/>
<path d="M10470.6 4.69285L13493.6 9.69775L13493.6 12.5443L10470.6 7.53944L10470.6 4.69285Z" fill="url(#paint39_linear_10_1094)"/>
<path d="M10430.8 7.06407L13533.5 12.2202L13533.5 15.0668L10430.8 9.91066L10430.8 7.06407Z" fill="url(#paint40_linear_10_1094)"/>
<path d="M10388.8 9.45351L13575.6 14.8157L13575.6 17.6623L10388.8 12.3001L10388.8 9.45351Z" fill="url(#paint41_linear_10_1094)"/>
<path d="M10344.5 12.1709L13620.1 17.5156L13620.1 20.3622L10344.5 15.0175L10344.5 12.1709Z" fill="url(#paint42_linear_10_1094)"/>
<path d="M10297.7 15.0208L13667.1 20.3157L13667.1 23.1623L10297.7 17.8674L10297.7 15.0208Z" fill="url(#paint43_linear_10_1094)"/>
<path d="M10248.1 17.8278L13717 23.4995L13717 26.3461L10248.1 20.6744L10248.1 17.8278Z" fill="url(#paint44_linear_10_1094)"/>
<path d="M10195.5 20.9177L13769.8 26.7559L13769.8 29.6025L10195.5 23.7643L10195.5 20.9177Z" fill="url(#paint45_linear_10_1094)"/>
<path d="M10139.5 24.6833L13825.9 29.6677L13825.9 32.5142L10139.5 27.5298L10139.5 24.6833Z" fill="url(#paint46_linear_10_1094)"/>
<path d="M10080 27.8276L13885.7 33.8218L13885.7 36.6684L10080 30.6742L10080 27.8276Z" fill="url(#paint47_linear_10_1094)"/>
<path d="M10016.5 31.5728L13949.4 37.7102L13949.4 40.5567L10016.5 34.4193L10016.5 31.5728Z" fill="url(#paint48_linear_10_1094)"/>
<path d="M9948.6 35.4836L14017.6 41.9224L14017.6 44.769L9948.59 38.3302L9948.6 35.4836Z" fill="url(#paint49_linear_10_1094)"/>
<path d="M9875.81 39.6098L14090.7 46.5625L14090.7 49.4091L9875.8 42.4564L9875.81 39.6098Z" fill="url(#paint50_linear_10_1094)"/>
<path d="M9797.6 44.3864L14169.2 51.2539L14169.2 54.1005L9797.59 47.2329L9797.6 44.3864Z" fill="url(#paint51_linear_10_1094)"/>
<path d="M9713.36 49.8417L14253.8 56.0283L14253.7 58.8749L9713.35 52.6883L9713.36 49.8417Z" fill="url(#paint52_linear_10_1094)"/>
<path d="M9622.37 55.2537L14345.1 61.6523L14345.1 64.4989L9622.36 58.1003L9622.37 55.2537Z" fill="url(#paint53_linear_10_1094)"/>
<path d="M9523.74 60.5083L14444.1 68.2466L14444.1 71.0931L9523.73 63.3548L9523.74 60.5083Z" fill="url(#paint54_linear_10_1094)"/>
<path d="M9416.46 66.6174L14551.7 75.1128L14551.7 77.9593L9416.45 69.4639L9416.46 66.6174Z" fill="url(#paint55_linear_10_1094)"/>
<path d="M9299.55 74.2149L14669.3 81.5686L14669.3 84.4152L9299.54 77.0614L9299.55 74.2149Z" fill="url(#paint56_linear_10_1094)"/>
<path d="M9171.25 80.9831L14797.9 90.3337L14797.9 93.1803L9171.24 83.8297L9171.25 80.9831Z" fill="url(#paint57_linear_10_1094)"/>
<path d="M9030.2 89.3743L14939.6 99.0669L14939.6 101.913L9030.19 92.2209L9030.2 89.3743Z" fill="url(#paint58_linear_10_1094)"/>
<path d="M8874.07 98.5014L15096.2 108.705L15096.2 111.552L8874.06 101.348L8874.07 98.5014Z" fill="url(#paint59_linear_10_1094)"/>
<path d="M8700.64 108.687L15270.4 119.473L15270.4 122.32L8700.63 111.533L8700.64 108.687Z" fill="url(#paint60_linear_10_1094)"/>
<path d="M8506.71 120.291L15465.2 131.298L15465.2 134.145L8506.7 123.138L8506.71 120.291Z" fill="url(#paint61_linear_10_1094)"/>
<path d="M8288.25 132.544L15684.5 145.387L15684.5 148.234L8288.23 135.39L8288.25 132.544Z" fill="url(#paint62_linear_10_1094)"/>
<path d="M8040.53 147.478L15933.2 160.411L15933.2 163.257L8040.52 150.325L8040.53 147.478Z" fill="url(#paint63_linear_10_1094)"/>
<path d="M7757.13 165.376L16217.6 176.842L16217.6 179.688L7757.12 168.223L7757.13 165.376Z" fill="url(#paint64_linear_10_1094)"/>
<path d="M7429.77 183.303L16546.3 198.362L16546.3 201.208L7429.76 186.15L7429.77 183.303Z" fill="url(#paint65_linear_10_1094)"/>
<path d="M7047.43 205.981L16930.1 221.879L16930.1 224.726L7047.42 208.828L7047.43 205.981Z" fill="url(#paint66_linear_10_1094)"/>
<path d="M6594.93 233.969L17384.3 248.482L17384.3 251.329L6594.92 236.815L6594.93 233.969Z" fill="url(#paint67_linear_10_1094)"/>
<path d="M6051.02 264.377L17930.4 283.835L17930.4 286.681L6051.01 267.224L6051.02 264.377Z" fill="url(#paint68_linear_10_1094)"/>
<path d="M18599.2 329.685L18599.2 326.839L5384.91 301.674L5384.91 304.52L18599.2 329.685Z" fill="url(#paint69_linear_10_1094)"/>
<path d="M4549.92 352.438L19437.4 377.061L19437.4 379.908L4549.91 355.285L4549.92 352.438Z" fill="url(#paint70_linear_10_1094)"/>
<path d="M3472.98 415.694L20518.5 443.743L20518.5 446.589L3472.97 418.54L3472.98 415.694Z" fill="url(#paint71_linear_10_1094)"/>
<path d="M2030.98 499.737L21966.3 533.868L21966.2 536.715L2030.97 502.584L2030.98 499.737Z" fill="url(#paint72_linear_10_1094)"/>
<path d="M0.0788058 623.999L24005 654.911L24005 657.758L0.0698712 626.845L0.0788058 623.999Z" fill="url(#paint73_linear_10_1094)"/>
</g>
<defs>
<filter id="filter0_b_10_1094" x="-70.001" y="-69.9988" width="24145.2" height="804.997" filterUnits="userSpaceOnUse" color-interpolation-filters="sRGB">
<feFlood flood-opacity="0" result="BackgroundImageFix"/>
<feGaussianBlur in="BackgroundImageFix" stdDeviation="35"/>
<feComposite in2="SourceAlpha" operator="in" result="effect1_backgroundBlur_10_1094"/>
<feBlend mode="normal" in="SourceGraphic" in2="effect1_backgroundBlur_10_1094" result="shape"/>
</filter>
<linearGradient id="paint0_linear_10_1094" x1="18230.8" y1="447.809" x2="18393" y2="-62.3414" gradientUnits="userSpaceOnUse">
<stop stop-color="#00A9EC"/>
<stop offset="1" stop-color="#B85DFF"/>
</linearGradient>
<linearGradient id="paint1_linear_10_1094" x1="17884.2" y1="446.942" x2="18053.5" y2="-56.9406" gradientUnits="userSpaceOnUse">
<stop stop-color="#00A9EC"/>
<stop offset="1" stop-color="#B85DFF"/>
</linearGradient>
<linearGradient id="paint2_linear_10_1094" x1="17537.5" y1="446.01" x2="17714.5" y2="-50.7393" gradientUnits="userSpaceOnUse">
<stop stop-color="#00A9EC"/>
<stop offset="1" stop-color="#B85DFF"/>
</linearGradient>
<linearGradient id="paint3_linear_10_1094" x1="17190.9" y1="445.1" x2="17376.2" y2="-43.4249" gradientUnits="userSpaceOnUse">
<stop stop-color="#00A9EC"/>
<stop offset="1" stop-color="#B85DFF"/>
</linearGradient>
<linearGradient id="paint4_linear_10_1094" x1="16844.2" y1="444.234" x2="17038.6" y2="-34.8108" gradientUnits="userSpaceOnUse">
<stop stop-color="#00A9EC"/>
<stop offset="1" stop-color="#B85DFF"/>
</linearGradient>
<linearGradient id="paint5_linear_10_1094" x1="16497.6" y1="443.302" x2="16701.7" y2="-24.6558" gradientUnits="userSpaceOnUse">
<stop stop-color="#00A9EC"/>
<stop offset="1" stop-color="#B85DFF"/>
</linearGradient>
<linearGradient id="paint6_linear_10_1094" x1="16150.9" y1="442.434" x2="16365.5" y2="-12.443" gradientUnits="userSpaceOnUse">
<stop stop-color="#00A9EC"/>
<stop offset="1" stop-color="#B85DFF"/>
</linearGradient>
<linearGradient id="paint7_linear_10_1094" x1="15804.4" y1="441.525" x2="16029.9" y2="2.25867" gradientUnits="userSpaceOnUse">
<stop stop-color="#00A9EC"/>
<stop offset="1" stop-color="#B85DFF"/>
</linearGradient>
<linearGradient id="paint8_linear_10_1094" x1="15457.7" y1="440.592" x2="15694.7" y2="20.0613" gradientUnits="userSpaceOnUse">
<stop stop-color="#00A9EC"/>
<stop offset="1" stop-color="#B85DFF"/>
</linearGradient>
<linearGradient id="paint9_linear_10_1094" x1="15111" y1="439.726" x2="15359.6" y2="41.9024" gradientUnits="userSpaceOnUse">
<stop stop-color="#00A9EC"/>
<stop offset="1" stop-color="#B85DFF"/>
</linearGradient>
<linearGradient id="paint10_linear_10_1094" x1="14764.4" y1="438.815" x2="15024" y2="68.7102" gradientUnits="userSpaceOnUse">
<stop stop-color="#00A9EC"/>
<stop offset="1" stop-color="#B85DFF"/>
</linearGradient>
<linearGradient id="paint11_linear_10_1094" x1="14417.8" y1="437.883" x2="14686.6" y2="101.66" gradientUnits="userSpaceOnUse">
<stop stop-color="#00A9EC"/>
<stop offset="1" stop-color="#B85DFF"/>
</linearGradient>
<linearGradient id="paint12_linear_10_1094" x1="14071.1" y1="436.973" x2="14345.5" y2="142.055" gradientUnits="userSpaceOnUse">
<stop stop-color="#00A9EC"/>
<stop offset="1" stop-color="#B85DFF"/>
</linearGradient>
<linearGradient id="paint13_linear_10_1094" x1="13724.5" y1="436.106" x2="13997.6" y2="190.799" gradientUnits="userSpaceOnUse">
<stop stop-color="#00A9EC"/>
<stop offset="1" stop-color="#B85DFF"/>
</linearGradient>
<linearGradient id="paint14_linear_10_1094" x1="13377.8" y1="435.152" x2="13637.9" y2="247.495" gradientUnits="userSpaceOnUse">
<stop stop-color="#00A9EC"/>
<stop offset="1" stop-color="#B85DFF"/>
</linearGradient>
<linearGradient id="paint15_linear_10_1094" x1="13031.2" y1="434.263" x2="13260.9" y2="309.349" gradientUnits="userSpaceOnUse">
<stop stop-color="#00A9EC"/>
<stop offset="1" stop-color="#B85DFF"/>
</linearGradient>
<linearGradient id="paint16_linear_10_1094" x1="12684.5" y1="433.287" x2="12860.7" y2="368.85" gradientUnits="userSpaceOnUse">
<stop stop-color="#00A9EC"/>
<stop offset="1" stop-color="#B85DFF"/>
</linearGradient>
<linearGradient id="paint17_linear_10_1094" x1="12337.8" y1="432.31" x2="12436.3" y2="413.88" gradientUnits="userSpaceOnUse">
<stop stop-color="#00A9EC"/>
<stop offset="1" stop-color="#B85DFF"/>
</linearGradient>
<linearGradient id="paint18_linear_10_1094" x1="11991.2" y1="431.135" x2="11995.2" y2="431.104" gradientUnits="userSpaceOnUse">
<stop stop-color="#00A9EC"/>
<stop offset="1" stop-color="#B85DFF"/>
</linearGradient>
<linearGradient id="paint19_linear_10_1094" x1="11593" y1="430.489" x2="11685.2" y2="414.336" gradientUnits="userSpaceOnUse">
<stop stop-color="#00A9EC"/>
<stop offset="1" stop-color="#B85DFF"/>
</linearGradient>
<linearGradient id="paint20_linear_10_1094" x1="11193" y1="429.711" x2="11364.2" y2="368.824" gradientUnits="userSpaceOnUse">
<stop stop-color="#00A9EC"/>
<stop offset="1" stop-color="#B85DFF"/>
</linearGradient>
<linearGradient id="paint21_linear_10_1094" x1="10793" y1="428.845" x2="11018.7" y2="307.676" gradientUnits="userSpaceOnUse">
<stop stop-color="#00A9EC"/>
<stop offset="1" stop-color="#B85DFF"/>
</linearGradient>
<linearGradient id="paint22_linear_10_1094" x1="10393.1" y1="427.936" x2="10649.3" y2="243.752" gradientUnits="userSpaceOnUse">
<stop stop-color="#00A9EC"/>
<stop offset="1" stop-color="#B85DFF"/>
</linearGradient>
<linearGradient id="paint23_linear_10_1094" x1="9992.98" y1="427.069" x2="10261.4" y2="185.092" gradientUnits="userSpaceOnUse">
<stop stop-color="#00A9EC"/>
<stop offset="1" stop-color="#B85DFF"/>
</linearGradient>
<linearGradient id="paint24_linear_10_1094" x1="9593.01" y1="426.181" x2="9861.54" y2="134.9" gradientUnits="userSpaceOnUse">
<stop stop-color="#00A9EC"/>
<stop offset="1" stop-color="#B85DFF"/>
</linearGradient>
<linearGradient id="paint25_linear_10_1094" x1="9192.98" y1="425.27" x2="9454.46" y2="93.5004" gradientUnits="userSpaceOnUse">
<stop stop-color="#00A9EC"/>
<stop offset="1" stop-color="#B85DFF"/>
</linearGradient>
<linearGradient id="paint26_linear_10_1094" x1="8792.94" y1="424.382" x2="9043.7" y2="59.9553" gradientUnits="userSpaceOnUse">
<stop stop-color="#00A9EC"/>
<stop offset="1" stop-color="#B85DFF"/>
</linearGradient>
<linearGradient id="paint27_linear_10_1094" x1="8392.91" y1="423.471" x2="8631.24" y2="32.9233" gradientUnits="userSpaceOnUse">
<stop stop-color="#00A9EC"/>
<stop offset="1" stop-color="#B85DFF"/>
</linearGradient>
<linearGradient id="paint28_linear_10_1094" x1="7992.93" y1="422.584" x2="8218.46" y2="11.0988" gradientUnits="userSpaceOnUse">
<stop stop-color="#00A9EC"/>
<stop offset="1" stop-color="#B85DFF"/>
</linearGradient>
<linearGradient id="paint29_linear_10_1094" x1="7592.84" y1="421.673" x2="7805.76" y2="-6.57214" gradientUnits="userSpaceOnUse">
<stop stop-color="#00A9EC"/>
<stop offset="1" stop-color="#B85DFF"/>
</linearGradient>
<linearGradient id="paint30_linear_10_1094" x1="7192.81" y1="420.784" x2="7393.78" y2="-21.0187" gradientUnits="userSpaceOnUse">
<stop stop-color="#00A9EC"/>
<stop offset="1" stop-color="#B85DFF"/>
</linearGradient>
<linearGradient id="paint31_linear_10_1094" x1="6792.83" y1="419.874" x2="6982.54" y2="-32.8643" gradientUnits="userSpaceOnUse">
<stop stop-color="#00A9EC"/>
<stop offset="1" stop-color="#B85DFF"/>
</linearGradient>
<linearGradient id="paint32_linear_10_1094" x1="6392.74" y1="418.964" x2="6571.99" y2="-42.6724" gradientUnits="userSpaceOnUse">
<stop stop-color="#00A9EC"/>
<stop offset="1" stop-color="#B85DFF"/>
</linearGradient>
<linearGradient id="paint33_linear_10_1094" x1="5992.76" y1="418.076" x2="6162.41" y2="-50.9095" gradientUnits="userSpaceOnUse">
<stop stop-color="#00A9EC"/>
<stop offset="1" stop-color="#B85DFF"/>
</linearGradient>
<linearGradient id="paint34_linear_10_1094" x1="5592.73" y1="417.166" x2="5753.48" y2="-57.7909" gradientUnits="userSpaceOnUse">
<stop stop-color="#00A9EC"/>
<stop offset="1" stop-color="#B85DFF"/>
</linearGradient>
<linearGradient id="paint35_linear_10_1094" x1="5192.69" y1="416.298" x2="5345.27" y2="-63.6173" gradientUnits="userSpaceOnUse">
<stop stop-color="#00A9EC"/>
<stop offset="1" stop-color="#B85DFF"/>
</linearGradient>
<linearGradient id="paint36_linear_10_1094" x1="4792.65" y1="415.367" x2="4937.72" y2="-68.6465" gradientUnits="userSpaceOnUse">
<stop stop-color="#00A9EC"/>
<stop offset="1" stop-color="#B85DFF"/>
</linearGradient>
<linearGradient id="paint37_linear_10_1094" x1="11851.2" y1="4.48904" x2="11851.2" y2="2.06457" gradientUnits="userSpaceOnUse">
<stop stop-color="#00A9EC"/>
<stop offset="1" stop-color="#B85DFF"/>
</linearGradient>
<linearGradient id="paint38_linear_10_1094" x1="11847.9" y1="6.62023" x2="11848" y2="4.19576" gradientUnits="userSpaceOnUse">
<stop stop-color="#00A9EC"/>
<stop offset="1" stop-color="#B85DFF"/>
</linearGradient>
<linearGradient id="paint39_linear_10_1094" x1="11844.6" y1="8.8768" x2="11844.6" y2="6.45233" gradientUnits="userSpaceOnUse">
<stop stop-color="#00A9EC"/>
<stop offset="1" stop-color="#B85DFF"/>
</linearGradient>
<linearGradient id="paint40_linear_10_1094" x1="11841" y1="11.3168" x2="11841" y2="8.89229" gradientUnits="userSpaceOnUse">
<stop stop-color="#00A9EC"/>
<stop offset="1" stop-color="#B85DFF"/>
</linearGradient>
<linearGradient id="paint41_linear_10_1094" x1="11837.3" y1="13.7998" x2="11837.3" y2="11.3754" gradientUnits="userSpaceOnUse">
<stop stop-color="#00A9EC"/>
<stop offset="1" stop-color="#B85DFF"/>
</linearGradient>
<linearGradient id="paint42_linear_10_1094" x1="11833.3" y1="16.5093" x2="11833.3" y2="14.0848" gradientUnits="userSpaceOnUse">
<stop stop-color="#00A9EC"/>
<stop offset="1" stop-color="#B85DFF"/>
</linearGradient>
<linearGradient id="paint43_linear_10_1094" x1="11829.1" y1="19.3365" x2="11829.1" y2="16.9121" gradientUnits="userSpaceOnUse">
<stop stop-color="#00A9EC"/>
<stop offset="1" stop-color="#B85DFF"/>
</linearGradient>
<linearGradient id="paint44_linear_10_1094" x1="11824.8" y1="22.3148" x2="11824.8" y2="19.8903" gradientUnits="userSpaceOnUse">
<stop stop-color="#00A9EC"/>
<stop offset="1" stop-color="#B85DFF"/>
</linearGradient>
<linearGradient id="paint45_linear_10_1094" x1="11820.1" y1="25.4804" x2="11820.1" y2="23.0559" gradientUnits="userSpaceOnUse">
<stop stop-color="#00A9EC"/>
<stop offset="1" stop-color="#B85DFF"/>
</linearGradient>
<linearGradient id="paint46_linear_10_1094" x1="11815" y1="28.8579" x2="11815" y2="26.4335" gradientUnits="userSpaceOnUse">
<stop stop-color="#00A9EC"/>
<stop offset="1" stop-color="#B85DFF"/>
</linearGradient>
<linearGradient id="paint47_linear_10_1094" x1="11809.7" y1="32.4612" x2="11809.8" y2="30.0367" gradientUnits="userSpaceOnUse">
<stop stop-color="#00A9EC"/>
<stop offset="1" stop-color="#B85DFF"/>
</linearGradient>
<linearGradient id="paint48_linear_10_1094" x1="11804.1" y1="36.2714" x2="11804.1" y2="33.847" gradientUnits="userSpaceOnUse">
<stop stop-color="#00A9EC"/>
<stop offset="1" stop-color="#B85DFF"/>
</linearGradient>
<linearGradient id="paint49_linear_10_1094" x1="11798" y1="40.3192" x2="11798" y2="37.8948" gradientUnits="userSpaceOnUse">
<stop stop-color="#00A9EC"/>
<stop offset="1" stop-color="#B85DFF"/>
</linearGradient>
<linearGradient id="paint50_linear_10_1094" x1="11791.5" y1="44.6791" x2="11791.5" y2="42.2546" gradientUnits="userSpaceOnUse">
<stop stop-color="#00A9EC"/>
<stop offset="1" stop-color="#B85DFF"/>
</linearGradient>
<linearGradient id="paint51_linear_10_1094" x1="11784.6" y1="49.4169" x2="11784.6" y2="46.9924" gradientUnits="userSpaceOnUse">
<stop stop-color="#00A9EC"/>
<stop offset="1" stop-color="#B85DFF"/>
</linearGradient>
<linearGradient id="paint52_linear_10_1094" x1="11777" y1="54.5628" x2="11777" y2="52.1383" gradientUnits="userSpaceOnUse">
<stop stop-color="#00A9EC"/>
<stop offset="1" stop-color="#B85DFF"/>
</linearGradient>
<linearGradient id="paint53_linear_10_1094" x1="11768.9" y1="60.0711" x2="11769" y2="57.6466" gradientUnits="userSpaceOnUse">
<stop stop-color="#00A9EC"/>
<stop offset="1" stop-color="#B85DFF"/>
</linearGradient>
<linearGradient id="paint54_linear_10_1094" x1="11760.1" y1="65.9346" x2="11760.1" y2="63.5101" gradientUnits="userSpaceOnUse">
<stop stop-color="#00A9EC"/>
<stop offset="1" stop-color="#B85DFF"/>
</linearGradient>
<linearGradient id="paint55_linear_10_1094" x1="11750.5" y1="72.3878" x2="11750.5" y2="69.9633" gradientUnits="userSpaceOnUse">
<stop stop-color="#00A9EC"/>
<stop offset="1" stop-color="#B85DFF"/>
</linearGradient>
<linearGradient id="paint56_linear_10_1094" x1="11740.2" y1="79.4664" x2="11740.2" y2="77.0419" gradientUnits="userSpaceOnUse">
<stop stop-color="#00A9EC"/>
<stop offset="1" stop-color="#B85DFF"/>
</linearGradient>
<linearGradient id="paint57_linear_10_1094" x1="11728.7" y1="87.1422" x2="11728.7" y2="84.7177" gradientUnits="userSpaceOnUse">
<stop stop-color="#00A9EC"/>
<stop offset="1" stop-color="#B85DFF"/>
</linearGradient>
<linearGradient id="paint58_linear_10_1094" x1="11716.1" y1="95.6889" x2="11716.1" y2="93.2644" gradientUnits="userSpaceOnUse">
<stop stop-color="#00A9EC"/>
<stop offset="1" stop-color="#B85DFF"/>
</linearGradient>
<linearGradient id="paint59_linear_10_1094" x1="11702.1" y1="105.048" x2="11702.2" y2="102.624" gradientUnits="userSpaceOnUse">
<stop stop-color="#00A9EC"/>
<stop offset="1" stop-color="#B85DFF"/>
</linearGradient>
<linearGradient id="paint60_linear_10_1094" x1="11686.7" y1="115.498" x2="11686.7" y2="113.074" gradientUnits="userSpaceOnUse">
<stop stop-color="#00A9EC"/>
<stop offset="1" stop-color="#B85DFF"/>
</linearGradient>
<linearGradient id="paint61_linear_10_1094" x1="11669.5" y1="127.203" x2="11669.5" y2="124.779" gradientUnits="userSpaceOnUse">
<stop stop-color="#00A9EC"/>
<stop offset="1" stop-color="#B85DFF"/>
</linearGradient>
<linearGradient id="paint62_linear_10_1094" x1="11649.9" y1="140.29" x2="11650" y2="137.866" gradientUnits="userSpaceOnUse">
<stop stop-color="#00A9EC"/>
<stop offset="1" stop-color="#B85DFF"/>
</linearGradient>
<linearGradient id="paint63_linear_10_1094" x1="11627.9" y1="155.265" x2="11627.9" y2="152.841" gradientUnits="userSpaceOnUse">
<stop stop-color="#00A9EC"/>
<stop offset="1" stop-color="#B85DFF"/>
</linearGradient>
<linearGradient id="paint64_linear_10_1094" x1="11602.6" y1="172.496" x2="11602.6" y2="170.072" gradientUnits="userSpaceOnUse">
<stop stop-color="#00A9EC"/>
<stop offset="1" stop-color="#B85DFF"/>
</linearGradient>
<linearGradient id="paint65_linear_10_1094" x1="11573.4" y1="192.056" x2="11573.4" y2="189.632" gradientUnits="userSpaceOnUse">
<stop stop-color="#00A9EC"/>
<stop offset="1" stop-color="#B85DFF"/>
</linearGradient>
<linearGradient id="paint66_linear_10_1094" x1="11539.3" y1="215.116" x2="11539.3" y2="212.692" gradientUnits="userSpaceOnUse">
<stop stop-color="#00A9EC"/>
<stop offset="1" stop-color="#B85DFF"/>
</linearGradient>
<linearGradient id="paint67_linear_10_1094" x1="11498.9" y1="242.474" x2="11498.9" y2="240.05" gradientUnits="userSpaceOnUse">
<stop stop-color="#00A9EC"/>
<stop offset="1" stop-color="#B85DFF"/>
</linearGradient>
<linearGradient id="paint68_linear_10_1094" x1="11450.4" y1="275.13" x2="11450.4" y2="272.705" gradientUnits="userSpaceOnUse">
<stop stop-color="#00A9EC"/>
<stop offset="1" stop-color="#B85DFF"/>
</linearGradient>
<linearGradient id="paint69_linear_10_1094" x1="11391" y1="320.46" x2="11391.3" y2="296.604" gradientUnits="userSpaceOnUse">
<stop stop-color="#00A9EC"/>
<stop offset="1" stop-color="#B85DFF"/>
</linearGradient>
<linearGradient id="paint70_linear_10_1094" x1="11316.5" y1="365.539" x2="11316.5" y2="363.114" gradientUnits="userSpaceOnUse">
<stop stop-color="#00A9EC"/>
<stop offset="1" stop-color="#B85DFF"/>
</linearGradient>
<linearGradient id="paint71_linear_10_1094" x1="11220.5" y1="430.352" x2="11220.5" y2="427.927" gradientUnits="userSpaceOnUse">
<stop stop-color="#00A9EC"/>
<stop offset="1" stop-color="#B85DFF"/>
</linearGradient>
<linearGradient id="paint72_linear_10_1094" x1="11091.9" y1="517.159" x2="11091.9" y2="514.735" gradientUnits="userSpaceOnUse">
<stop stop-color="#00A9EC"/>
<stop offset="1" stop-color="#B85DFF"/>
</linearGradient>
<linearGradient id="paint73_linear_10_1094" x1="10910.7" y1="639.958" x2="10910.7" y2="637.534" gradientUnits="userSpaceOnUse">
<stop stop-color="#00A9EC"/>
<stop offset="1" stop-color="#B85DFF"/>
</linearGradient>
</defs>
</svg>
