<svg width="27" height="27" viewBox="0 0 27 27" fill="none" xmlns="http://www.w3.org/2000/svg">
<path fill-rule="evenodd" clip-rule="evenodd" d="M13.4999 7.87514C9.39589 7.87514 5.89644 10.3013 4.45574 13.7185C4.42704 13.7866 4.38521 13.8483 4.33266 13.9002C4.2801 13.9521 4.21783 13.9932 4.14941 14.021C4.08099 14.0488 4.00776 14.0629 3.9339 14.0625C3.86004 14.062 3.78699 14.047 3.71893 14.0183C3.65087 13.9896 3.58913 13.9478 3.53723 13.8952C3.48533 13.8426 3.4443 13.7804 3.41646 13.7119C3.38863 13.6435 3.37454 13.5703 3.37501 13.4964C3.37548 13.4226 3.39049 13.3495 3.41919 13.2815C5.03792 9.44241 8.9487 6.75 13.4999 6.75C18.0511 6.75 21.9619 9.44241 23.5806 13.2815C23.6386 13.4189 23.6395 13.5738 23.5833 13.7119C23.5271 13.8501 23.4183 13.9603 23.2809 14.0183C23.1434 14.0762 22.9886 14.0772 22.8504 14.021C22.7122 13.9648 22.602 13.856 22.544 13.7185C21.1033 10.3013 17.6039 7.87514 13.4999 7.87514Z" fill="white" fill-opacity="0.8"/>
<path fill-rule="evenodd" clip-rule="evenodd" d="M13.4999 19.1248C9.39589 19.1248 5.89644 16.6986 4.45574 13.2814C4.42704 13.2134 4.38521 13.1516 4.33266 13.0997C4.2801 13.0478 4.21783 13.0068 4.14941 12.979C4.08099 12.9511 4.00776 12.937 3.9339 12.9375C3.86004 12.938 3.78699 12.953 3.71893 12.9817C3.65087 13.0104 3.58913 13.0522 3.53723 13.1048C3.48533 13.1573 3.4443 13.2196 3.41646 13.288C3.38863 13.3564 3.37454 13.4297 3.37501 13.5035C3.37548 13.5774 3.39049 13.6504 3.41919 13.7185C5.03792 17.5576 8.9487 20.25 13.4999 20.25C18.0511 20.25 21.9619 17.5576 23.5806 13.7185C23.6386 13.581 23.6395 13.4262 23.5833 13.288C23.5271 13.1498 23.4183 13.0396 23.2809 12.9817C23.1434 12.9237 22.9886 12.9227 22.8504 12.979C22.7122 13.0352 22.602 13.144 22.544 13.2814C21.1033 16.6986 17.6039 19.1248 13.4999 19.1248Z" fill="white" fill-opacity="0.8"/>
<path fill-rule="evenodd" clip-rule="evenodd" d="M13.4999 10.6879C13.1276 10.6833 12.7582 10.7527 12.413 10.892C12.0678 11.0313 11.7536 11.2377 11.4888 11.4993C11.224 11.7609 11.0137 12.0725 10.8702 12.416C10.7267 12.7595 10.6528 13.1281 10.6528 13.5003C10.6528 13.8726 10.7267 14.2411 10.8702 14.5846C11.0137 14.9281 11.224 15.2397 11.4888 15.5013C11.7536 15.7629 12.0678 15.9693 12.413 16.1086C12.7582 16.2479 13.1276 16.3173 13.4999 16.3127C14.2398 16.3037 14.9464 16.0034 15.4664 15.4769C15.9864 14.9505 16.2781 14.2403 16.2781 13.5003C16.2781 12.7603 15.9864 12.0501 15.4664 11.5237C14.9464 10.9972 14.2398 10.6969 13.4999 10.6879ZM9.5625 13.5001C9.5625 12.983 9.66434 12.471 9.86221 11.9933C10.0601 11.5156 10.3501 11.0816 10.7157 10.716C11.0813 10.3504 11.5154 10.0603 11.9931 9.86246C12.4708 9.66459 12.9828 9.56274 13.4999 9.56274C14.0169 9.56274 14.5289 9.66459 15.0066 9.86246C15.4843 10.0603 15.9184 10.3504 16.284 10.716C16.6496 11.0816 16.9396 11.5156 17.1375 11.9933C17.3354 12.471 17.4372 12.983 17.4372 13.5001C17.4372 14.5444 17.0224 15.5458 16.284 16.2842C15.5456 17.0226 14.5441 17.4375 13.4999 17.4375C12.4556 17.4375 11.4541 17.0226 10.7157 16.2842C9.97733 15.5458 9.5625 14.5444 9.5625 13.5001Z" fill="white" fill-opacity="0.8"/>
<path fill-rule="evenodd" clip-rule="evenodd" d="M23.4603 3.5396C23.6797 3.7594 23.6797 4.11546 23.4603 4.33526L4.33459 23.4605C4.28235 23.5128 4.22033 23.5542 4.15208 23.5824C4.08384 23.6107 4.01069 23.6252 3.93683 23.6252C3.86296 23.6252 3.78983 23.6106 3.72159 23.5823C3.65336 23.554 3.59136 23.5126 3.53915 23.4603C3.48693 23.4081 3.44552 23.3461 3.41727 23.2778C3.38902 23.2096 3.37449 23.1364 3.37451 23.0626C3.37453 22.9887 3.3891 22.9156 3.41738 22.8473C3.44567 22.7791 3.48712 22.7171 3.53936 22.6649L22.6646 3.5396C22.884 3.31981 23.2405 3.31981 23.4603 3.5396Z" fill="white" fill-opacity="0.8"/>
</svg>
